<svg width="54" height="66" viewBox="0 0 54 66" fill="none" xmlns="http://www.w3.org/2000/svg">
<path d="M1.98153 54H0.294034L3.36648 45.2727H5.31818L8.39489 54H6.70739L4.37642 47.0625H4.30824L1.98153 54ZM2.03693 50.5781H6.6392V51.848H2.03693V50.5781ZM17.1467 47.6719C17.1069 47.2997 16.9393 47.0099 16.6438 46.8026C16.3512 46.5952 15.9705 46.4915 15.5018 46.4915C15.1722 46.4915 14.8896 46.5412 14.6538 46.6406C14.418 46.7401 14.2376 46.875 14.1126 47.0455C13.9876 47.2159 13.9237 47.4105 13.9208 47.6293C13.9208 47.8111 13.962 47.9687 14.0444 48.1023C14.1296 48.2358 14.2447 48.3494 14.3896 48.4432C14.5344 48.5341 14.695 48.6108 14.8711 48.6733C15.0472 48.7358 15.2248 48.7884 15.4038 48.831L16.2219 49.0355C16.5515 49.1122 16.8683 49.2159 17.1722 49.3466C17.479 49.4773 17.7532 49.642 17.9947 49.8409C18.239 50.0398 18.4322 50.2798 18.5742 50.5611C18.7163 50.8423 18.7873 51.1719 18.7873 51.5497C18.7873 52.0611 18.6566 52.5114 18.3952 52.9006C18.1339 53.2869 17.756 53.5895 17.2617 53.8082C16.7702 54.0241 16.1751 54.1321 15.4762 54.1321C14.7972 54.1321 14.2077 54.027 13.7077 53.8168C13.2106 53.6065 12.8214 53.2997 12.5401 52.8963C12.2617 52.4929 12.1112 52.0014 12.0884 51.4219H13.6438C13.6665 51.7259 13.7603 51.9787 13.9251 52.1804C14.0898 52.3821 14.3043 52.5327 14.5685 52.6321C14.8356 52.7315 15.1339 52.7812 15.4634 52.7812C15.8072 52.7812 16.1083 52.7301 16.3668 52.6278C16.6282 52.5227 16.8327 52.3778 16.9805 52.1932C17.1282 52.0057 17.2035 51.7869 17.2063 51.5369C17.2035 51.3097 17.1367 51.1222 17.006 50.9744C16.8754 50.8239 16.6921 50.6989 16.4563 50.5994C16.2234 50.4972 15.9506 50.4062 15.6381 50.3267L14.6452 50.071C13.9265 49.8864 13.3583 49.6065 12.9407 49.2315C12.5259 48.8537 12.3185 48.3523 12.3185 47.7273C12.3185 47.2131 12.4577 46.7628 12.7362 46.3764C13.0174 45.9901 13.3995 45.6903 13.8825 45.4773C14.3654 45.2614 14.9123 45.1534 15.5231 45.1534C16.1424 45.1534 16.685 45.2614 17.1509 45.4773C17.6197 45.6903 17.9876 45.9872 18.2546 46.3679C18.5217 46.7457 18.6594 47.1804 18.668 47.6719H17.1467ZM29.0433 48.0597C28.9723 47.8295 28.8743 47.6236 28.7493 47.4418C28.6271 47.2571 28.4794 47.0994 28.3061 46.9688C28.1357 46.8381 27.9396 46.7401 27.718 46.6747C27.4964 46.6065 27.255 46.5724 26.9936 46.5724C26.5249 46.5724 26.1072 46.6903 25.7408 46.9261C25.3743 47.1619 25.0859 47.5085 24.8757 47.9659C24.6683 48.4205 24.5646 48.9744 24.5646 49.6278C24.5646 50.2869 24.6683 50.8452 24.8757 51.3026C25.0831 51.7599 25.3714 52.108 25.7408 52.3466C26.1101 52.5824 26.5391 52.7003 27.0277 52.7003C27.4709 52.7003 27.8544 52.6151 28.1783 52.4446C28.505 52.2741 28.7564 52.0327 28.9325 51.7202C29.1087 51.4048 29.1967 51.0355 29.1967 50.6122L29.5547 50.6676H27.1854V49.4318H30.7266V50.4801C30.7266 51.2273 30.5675 51.8736 30.2493 52.419C29.9311 52.9645 29.4936 53.3849 28.9368 53.6804C28.38 53.973 27.7408 54.1193 27.0192 54.1193C26.2152 54.1193 25.5092 53.9389 24.9013 53.5781C24.2962 53.2145 23.8232 52.6989 23.4822 52.0312C23.1442 51.3608 22.9751 50.5653 22.9751 49.6449C22.9751 48.9403 23.0746 48.3111 23.2734 47.7571C23.4751 47.2031 23.7564 46.733 24.1172 46.3466C24.478 45.9574 24.9013 45.6619 25.3871 45.4602C25.8729 45.2557 26.4013 45.1534 26.9723 45.1534C27.4553 45.1534 27.9055 45.2244 28.3232 45.3665C28.7408 45.5057 29.1115 45.7045 29.4354 45.9631C29.7621 46.2216 30.0305 46.5284 30.2408 46.8835C30.451 47.2386 30.5888 47.6307 30.6541 48.0597H29.0433ZM36.1065 54H34.419L37.4915 45.2727H39.4432L42.5199 54H40.8324L38.5014 47.0625H38.4332L36.1065 54ZM36.1619 50.5781H40.7642V51.848H36.1619V50.5781ZM46.6694 54V45.2727H49.9421C50.6126 45.2727 51.1751 45.3892 51.6296 45.6222C52.087 45.8551 52.4322 46.1818 52.6651 46.6023C52.9009 47.0199 53.0188 47.5071 53.0188 48.0639C53.0188 48.6236 52.8995 49.1094 52.6609 49.5213C52.4251 49.9304 52.0771 50.2472 51.6168 50.4716C51.1566 50.6932 50.5913 50.804 49.9208 50.804H47.5898V49.4915H49.7077C50.0998 49.4915 50.4208 49.4375 50.6708 49.3295C50.9208 49.2187 51.1055 49.0582 51.2248 48.848C51.3469 48.6349 51.408 48.3736 51.408 48.0639C51.408 47.7543 51.3469 47.4901 51.2248 47.2713C51.1026 47.0497 50.9165 46.8821 50.6665 46.7685C50.4165 46.652 50.0941 46.5938 49.6992 46.5938H48.2504V54H46.6694ZM51.1779 50.0455L53.3384 54H51.5742L49.4521 50.0455H51.1779Z" fill="white"/>
<path d="M12.9716 58.5455C12.9337 58.0933 12.7491 57.7275 12.4176 57.4482C12.0885 57.1688 11.6624 57.0291 11.1392 57.0291C10.7865 57.0291 10.4728 57.0942 10.1982 57.2244C9.92353 57.3546 9.7081 57.5322 9.55185 57.7571C9.3956 57.982 9.31747 58.2401 9.31747 58.5312C9.31747 58.7183 9.35298 58.8875 9.42401 59.0391C9.4974 59.1882 9.60038 59.322 9.73295 59.4403C9.86553 59.5563 10.023 59.6581 10.2053 59.7457C10.3875 59.8333 10.5888 59.9103 10.8089 59.9766L11.6044 60.2109C11.8767 60.2938 12.1276 60.3897 12.3572 60.4986C12.5893 60.6075 12.7905 60.7377 12.9609 60.8892C13.1338 61.0384 13.2675 61.2135 13.3622 61.4148C13.4593 61.616 13.5078 61.848 13.5078 62.1108C13.5078 62.4943 13.4084 62.8376 13.2095 63.1406C13.013 63.4437 12.7325 63.6828 12.3679 63.858C12.0057 64.0308 11.5784 64.1172 11.0859 64.1172C10.6172 64.1172 10.2088 64.0379 9.8608 63.8793C9.51515 63.7206 9.24171 63.5005 9.04048 63.2188C8.83925 62.9347 8.72562 62.608 8.69957 62.2386H9.15412C9.17779 62.5393 9.27367 62.7997 9.44176 63.0199C9.61222 63.2377 9.8383 63.4058 10.12 63.5241C10.4018 63.6425 10.7237 63.7017 11.0859 63.7017C11.4766 63.7017 11.821 63.6354 12.1193 63.5028C12.4176 63.3679 12.6508 63.1809 12.8189 62.9418C12.987 62.7027 13.071 62.4245 13.071 62.1072C13.071 61.8516 13.0107 61.6326 12.8899 61.4503C12.7692 61.268 12.5904 61.1106 12.3537 60.978C12.1193 60.8454 11.8281 60.727 11.4801 60.6229L10.6314 60.3672C10.0632 60.1944 9.62879 59.9588 9.32812 59.6605C9.02983 59.3622 8.88068 58.9905 8.88068 58.5455C8.88068 58.1714 8.98011 57.84 9.17898 57.5511C9.37784 57.2599 9.64773 57.0315 9.98864 56.8658C10.3319 56.7 10.719 56.6172 11.1499 56.6172C11.5831 56.6172 11.9654 56.7012 12.2969 56.8693C12.6283 57.035 12.8911 57.2635 13.0852 57.5547C13.2794 57.8435 13.3871 58.1738 13.4084 58.5455H12.9716ZM14.7791 57.1392V56.7273H19.875V57.1392H17.549V64H17.1051V57.1392H14.7791ZM26.418 56.7273H26.8619V61.5426C26.8619 62.0374 26.747 62.4789 26.5174 62.8672C26.2878 63.2531 25.9705 63.5585 25.5657 63.7834C25.1632 64.0059 24.7004 64.1172 24.1772 64.1172C23.6564 64.1172 23.1935 64.0059 22.7887 63.7834C22.3839 63.5585 22.0655 63.2519 21.8335 62.8636C21.6038 62.4754 21.4902 62.035 21.4925 61.5426V56.7273H21.9364V61.5178C21.9364 61.9368 22.0311 62.3097 22.2205 62.6364C22.4123 62.9631 22.6763 63.2211 23.0124 63.4105C23.3486 63.5975 23.7369 63.6911 24.1772 63.6911C24.6175 63.6911 25.0058 63.5975 25.342 63.4105C25.6781 63.2211 25.9409 62.9631 26.1303 62.6364C26.3221 62.3097 26.418 61.9368 26.418 61.5178V56.7273ZM30.9803 64H28.9632V56.7273H31.1365C31.8184 56.7273 32.4019 56.8717 32.8873 57.1605C33.3726 57.4493 33.7443 57.8636 34.0023 58.4034C34.2627 58.9408 34.3917 59.5859 34.3894 60.3388C34.387 61.1082 34.2521 61.7663 33.9846 62.3132C33.717 62.8577 33.33 63.2756 32.8233 63.5668C32.3167 63.8556 31.7024 64 30.9803 64ZM29.4071 63.5881H30.9625C31.6112 63.5881 32.1581 63.459 32.6032 63.201C33.0482 62.9406 33.3844 62.5677 33.6117 62.0824C33.8413 61.5971 33.955 61.0159 33.9526 60.3388C33.9526 59.6712 33.8425 59.0994 33.6223 58.6236C33.4022 58.1454 33.0814 57.7784 32.66 57.5227C32.2409 57.267 31.7272 57.1392 31.1188 57.1392H29.4071V63.5881ZM36.5653 56.7273V64H36.1214V56.7273H36.5653ZM44.4551 60.3636C44.4551 61.1141 44.3249 61.7699 44.0645 62.331C43.804 62.8897 43.4418 63.3241 42.9778 63.6342C42.5162 63.9444 41.9835 64.0994 41.3798 64.0994C40.7737 64.0994 40.2387 63.9444 39.7747 63.6342C39.313 63.3217 38.952 62.8861 38.6916 62.3274C38.4312 61.7663 38.301 61.1117 38.301 60.3636C38.301 59.6132 38.4312 58.9586 38.6916 58.3999C38.9544 57.8411 39.3166 57.4067 39.7782 57.0966C40.2399 56.7841 40.7737 56.6278 41.3798 56.6278C41.9835 56.6278 42.5162 56.7829 42.9778 57.093C43.4418 57.4032 43.804 57.8388 44.0645 58.3999C44.3249 58.9586 44.4551 59.6132 44.4551 60.3636ZM44.0218 60.3636C44.0218 59.6889 43.9082 59.1042 43.6809 58.6094C43.456 58.1146 43.1447 57.7322 42.747 57.4624C42.3493 57.1901 41.8935 57.054 41.3798 57.054C40.8661 57.054 40.4103 57.1889 40.0126 57.4588C39.6149 57.7263 39.3024 58.1087 39.0751 58.6058C38.8502 59.1006 38.7377 59.6866 38.7377 60.3636C38.7377 61.0336 38.849 61.6172 39.0716 62.1143C39.2965 62.6091 39.6078 62.9927 40.0055 63.2649C40.4032 63.5372 40.8613 63.6733 41.3798 63.6733C41.8935 63.6733 42.3493 63.5384 42.747 63.2685C43.1447 62.9962 43.456 62.6127 43.6809 62.1179C43.9082 61.6231 44.0218 61.0384 44.0218 60.3636Z" fill="white"/>
<path d="M6.01683 42.6913C5.43681 42.5993 5.01425 42.4035 4.74914 42.104C4.45791 41.7991 4.43167 41.3309 4.67041 40.6994C4.68652 40.621 4.7368 40.5088 4.82127 40.3628C4.90573 40.2169 4.99251 40.1258 5.08161 40.0897C4.92123 40.7373 4.90561 41.2105 5.03475 41.5093C5.16389 41.8081 5.43742 42.0005 5.85535 42.0864C6.87404 42.2959 7.98598 42.1842 9.19117 41.7513C10.4225 41.3239 11.6864 40.6717 12.9829 39.7949C12.7378 39.6628 12.4304 39.4363 12.0608 39.1153C11.712 38.8257 11.4465 38.5942 11.2644 38.4206C10.3754 37.4483 10.0329 36.4659 10.2369 35.4733C10.3927 34.7158 10.9014 33.9629 11.7631 33.2144C12.6248 32.4659 13.9202 31.793 15.6493 31.1957C16.7654 30.799 18.0248 30.4998 19.4275 30.2982C20.8301 30.0965 22.1226 29.9675 23.3048 29.9111C23.8524 29.2342 24.3842 28.5676 24.9002 27.9114C25.4163 27.2552 25.9193 26.5964 26.4092 25.9348C26.5989 25.6744 26.9468 25.1742 27.4528 24.4342C27.9589 23.6943 28.5336 22.8188 29.1771 21.8077C29.8206 20.7966 30.4514 19.7148 31.0695 18.5623C31.7191 17.3891 32.2953 16.2416 32.7982 15.1199C33.301 13.9982 33.6464 12.9802 33.8344 12.066C34.017 11.1779 34.0026 10.4535 33.7912 9.89279C33.6059 9.33743 33.1345 8.98188 32.377 8.82614L32.3378 8.81808C32.1289 8.77512 32.0378 8.68833 32.0647 8.55773C32.0915 8.42713 32.2409 8.36256 32.5129 8.36402C33.7935 8.4912 34.6068 8.97149 34.9527 9.8049C35.2986 10.6383 35.348 11.6558 35.101 12.8573C35.058 13.0663 34.9993 13.2856 34.9249 13.5153C34.8765 13.7504 34.8125 13.9959 34.7326 14.2517C34.8625 14.4145 34.9213 14.658 34.9091 14.9822C34.894 15.8503 34.8252 16.9796 34.7026 18.37C34.6062 19.7659 34.5091 21.2977 34.4112 22.9655C34.3133 24.6333 34.2492 26.3353 34.219 28.0714C34.2202 29.7868 34.2925 31.4215 34.4358 32.9755C34.6106 34.5088 34.9094 35.8362 35.3322 36.9577C35.4198 37.1935 35.5463 37.5053 35.7115 37.8932C35.8822 38.255 36.1104 38.6014 36.3963 38.9324C36.6821 39.2634 37.034 39.4719 37.452 39.5578C37.896 39.6491 38.3907 39.5603 38.936 39.2913C39.4238 39.0376 39.9123 38.648 40.4015 38.1224C40.8907 37.5968 41.3618 37.0267 41.8149 36.412C42.0307 36.1569 42.2039 36.0428 42.3345 36.0697C42.4651 36.0965 42.5404 36.1937 42.5604 36.3611C42.6119 36.5078 42.6112 36.6438 42.5582 36.769C42.3839 37.0871 42.0786 37.4463 41.6424 37.8467C41.2377 38.2263 40.8252 38.5771 40.4051 38.8991C39.9904 39.1949 39.6624 39.3998 39.4212 39.5135C38.8759 39.7825 38.3651 39.9498 37.8888 40.0152C37.4333 40.1121 37.0227 40.123 36.657 40.0478C35.795 39.8706 35.1047 39.3883 34.5859 38.601C34.0987 37.793 33.6951 36.975 33.3753 36.147C32.9372 34.9679 32.686 33.5414 32.6217 31.8675C32.5836 30.199 32.6508 28.416 32.8231 26.5185C32.9954 24.621 33.2016 22.7576 33.4415 20.9285C33.7076 19.1047 33.9284 17.435 34.1039 15.9192C33.4897 17.3175 32.75 18.7308 31.8846 20.1592C31.0192 21.5875 30.1649 22.8956 29.3218 24.0834C28.5101 25.2506 27.8489 26.1491 27.3382 26.7792C26.5219 27.8365 25.6533 28.883 24.7326 29.9188C25.9932 29.8785 27.3006 29.8751 28.655 29.9085C30.0093 29.9419 31.2043 29.9562 32.2398 29.9513L32.3574 29.9755C32.4618 29.997 32.506 30.0469 32.4899 30.1253C32.4738 30.2036 32.387 30.2947 32.2296 30.3984C32.0721 30.5022 31.8835 30.5587 31.6638 30.568C30.4977 30.546 29.2321 30.5444 27.867 30.5632C26.5073 30.5559 25.2205 30.5908 24.0068 30.668C22.381 32.4844 20.7636 34.1937 19.1547 35.7959C17.5457 37.398 15.8622 38.767 14.1041 39.9029C15.0322 40.4204 16.2668 40.8376 17.8079 41.1544L17.8863 41.1706C18.0953 41.2135 18.189 41.2872 18.1675 41.3917C18.1353 41.5484 17.9625 41.5946 17.649 41.5301C16.9123 41.4059 16.202 41.219 15.5183 40.9695C14.8291 40.7462 14.203 40.4813 13.6398 40.175C12.2596 41.0618 10.9119 41.724 9.59689 42.1615C8.3026 42.6304 7.10925 42.807 6.01683 42.6913ZM13.4552 39.4836C14.9775 38.4354 16.5063 37.1571 18.0415 35.6487C19.6029 34.1457 21.102 32.5482 22.5388 30.8562C22.1778 30.8909 21.801 30.9359 21.4084 30.9913C21.0159 31.0467 20.6311 31.131 20.2539 31.244C19.7669 31.3616 19.1044 31.5385 18.2663 31.7746C17.4283 32.0106 16.5849 32.2728 15.7361 32.5611C14.9188 32.8287 14.2793 33.092 13.8177 33.351C13.1986 33.7137 12.7259 34.093 12.3995 34.4887C12.0732 34.8844 11.867 35.2912 11.7811 35.7091C11.7059 36.0748 11.6987 36.4409 11.7595 36.8073C11.8464 37.1791 11.9621 37.5432 12.1066 37.8996C12.205 38.0831 12.3971 38.3404 12.683 38.6715C12.9896 39.034 13.247 39.3047 13.4552 39.4836Z" fill="#F3CB51"/>
</svg>
